# xmcd
#
# Track frame offsets:
#	150
#	12658
#	27064
#	42095
#	55996
#	74463
#	88121
#	98922
#	114154
#	128474
#	142295
#	156857
#	168667
#	182720
#	196074
#	211216
#	226280
#	240614
#	254103
#	268865
#	283366
#	303456
#
# Disc length: 4221 seconds
#
# Revision: 1
# Processed by: cddbd v1.5.2PL0 Copyright (c) Steve Scherf et al.
# Submitted via: audiograbber 1.83.01
#
DISCID=46107b16
DTITLE=Frank Sinatra - Frank Sinatra
DYEAR=1900
DGENRE=Ballad
TTITLE0=Saturday Night
TTITLE1=Day Break
TTITLE2=East of The Sun
TTITLE3=If I Loved You
TTITLE4=Ol' Man River
TTITLE5=You Go To My Head
TTITLE6=Night and Day
TTITLE7=Someone To Watch Over Me
TTITLE8=I'll Never Smile Again
TTITLE9=Candle in The Chapel
TTITLE10=Oh! Look At Me Now
TTITLE11=The Sunshine Of Your Smile
TTITLE12=Somewhere a Voice Is Calling
TTITLE13=I've Got My Eyes On You
TTITLE14=From The Bottom Of My Heart
TTITLE15=She's Funny That Way
TTITLE16=My Melancholy Baby
TTITLE17=A Sinner Kissed An Angel
TTITLE18=Blue Skies
TTITLE19=Just As Though You Were Here
TTITLE20=Without A Song
TTITLE21=You Make Me Feel So Young
EXTD=
EXTT0=
EXTT1=
EXTT2=
EXTT3=
EXTT4=
EXTT5=
EXTT6=
EXTT7=
EXTT8=
EXTT9=
EXTT10=
EXTT11=
EXTT12=
EXTT13=
EXTT14=
EXTT15=
EXTT16=
EXTT17=
EXTT18=
EXTT19=
EXTT20=
EXTT21=
PLAYORDER=
